<svg xmlns="http://www.w3.org/2000/svg" width="512" height="512" style="" viewBox="0 0 512 512" data-svgdocument="" id="_przbjyw-ut5ZCFqRFTRMP" class="fl-svgdocument" x="0" y="0" xmlns:xlink="http://www.w3.org/1999/xlink" overflow="hidden">
  <defs id="_vWO0qXNlXRNmhTbQ8hOdA" transform="matrix(1.416364073753357, 0, 0, 1.416364073753357, -44.63606262207031, 155.44921875)" />
  <path id="_BqZHw96H8rdJxtI-rFXXy" fill-rule="evenodd" clip-rule="evenodd" d="M49.221,36.066c-0.779-3.27-0.067-6.232,1.628-8.973   c1.72-2.779,4.135-4.627,7.382-5.323c3.6-0.772,7.191-1.578,10.882-2.391c0,0.265,0.036,0.521-0.006,0.762   c-0.409,2.363-1.036,4.71-1.208,7.09c-0.406,5.602-3.814,8.483-8.707,10.138c-0.887,0.3-1.818,0.521-2.747,0.626   c-1.336,0.151-2.3,0.803-2.772,2c-1.352,3.421-2.715,6.842-3.907,10.32c-1.947,5.682-2.662,11.635-3.634,17.528   c-0.455,2.761-1.642,3.524-4.334,2.711c-0.361-0.109-0.703-0.729-0.806-1.17c-0.668-2.854-1.212-5.736-1.899-8.585   c-1.912-7.929-3.893-15.842-7.15-23.358C29.48,31.76,26.046,26.704,21.939,22.09c-0.274-0.309-0.534-0.631-0.788-0.956   c-0.065-0.084-0.084-0.202-0.256-0.642c1.062,0.492,1.919,0.807,2.694,1.263c2.93,1.728,5.152,4.229,7.386,6.742   c4.091,4.603,6.204,10.172,7.913,15.929c1.304,4.393,2.43,8.839,3.651,13.256c0.154,0.559,0.409,1.09,0.618,1.634   c0.105,0.002,0.211,0.005,0.317,0.007c0.539-1.55,1.12-3.087,1.61-4.652c1.92-6.141,3.91-12.254,6.834-18.014   c1.575-3.103,3.47-5.987,5.863-8.529c0.205-0.218,0.393-0.455,0.569-0.697c0.104-0.144,0.169-0.314,0.439-0.833   c-0.834,0.265-1.401,0.357-1.884,0.612c-3.369,1.782-5.494,4.712-7.255,7.967C49.494,35.465,49.363,35.769,49.221,36.066z" fill="#00e801" transform="matrix(2.8368091583251953, 0.02184257097542286, 0.02184257097542286, -2.8368091583251953, -35.16912841796875, 364.5260314941406)" />
  <path text="sh's" text-anchor="start" font-size="100" letter-spacing="0" side="left" offset="0" dx="0" dy="0" space="preserve" href="" font-family="Racing Sans One" font-scale="contain" transform="matrix(0.8583245277404785, 0, 0, 0.639560878276825, 116.68846893310547, 236.36708068847656)" x="0" y="0" fill="#00e801" data-fl-textpath="" id="_GrLSZKToTQtkCosEid5tp" font-weight="400" font-style="normal" d="M 43.7-30.4L 30.7-30.4Q 30.8-30.9  30.9-31.4Q 31-31.9  31-32.5L 31-32.5Q 31-34.3  30.35-35.85Q 29.7-37.4  27.8-37.4L 27.8-37.4Q 26.1-37.4  24.4-35.95Q 22.7-34.5  22.7-32.1L 22.7-32.1Q 22.7-30.5  23.55-29.55Q 24.4-28.6  25.8-28Q 27.2-27.4  28.95-27Q 30.7-26.6  32.4-26.2L 32.4-26.2Q 34.8-25.6  36.95-24.75Q 39.1-23.9  40.8-22.5Q 42.5-21.1  43.5-19.05Q 44.5-17  44.5-14L 44.5-14Q 44.5-9.8  42.55-6.95Q 40.6-4.1  37.15-2.35Q 33.7-0.6  29.05 0.1Q 24.4 0.8  19.1 0.8L 19.1 0.8Q 11 0.8  5.7-0.4Q 0.4-1.6-1.7-2.7L-1.7-2.7L 0.4-12.7L 13.9-12.7Q 13.8-12.2  13.8-11.75Q 13.8-11.3  13.8-10.8L 13.8-10.8Q 13.8-8.5  14.85-7.15Q 15.9-5.8  18.5-5.8L 18.5-5.8Q 21.4-5.8  22.65-7.45Q 23.9-9.1  23.9-10.5L 23.9-10.5Q 23.9-11.9  22.85-12.95Q 21.8-14  20.2-14.75Q 18.6-15.5  16.65-16.05Q 14.7-16.6  12.9-17.1L 12.9-17.1Q 11.6-17.4  9.95-18.1Q 8.3-18.8  6.8-20.1Q 5.3-21.4  4.3-23.45Q 3.3-25.5  3.3-28.6L 3.3-28.6Q 3.3-33  5.45-35.95Q 7.6-38.9  11.05-40.7Q 14.5-42.5  18.85-43.3Q 23.2-44.1  27.6-44.1L 27.6-44.1Q 33.1-44.1  38-43.1Q 42.9-42.1  46-40.5L 46-40.5L 43.7-30.4ZM 82.4-67.2L 75.9-36.6L 76.6-36.6Q 78.5-38.5  81-40.1L 81-40.1Q 83.1-41.5  86-42.6Q 88.9-43.7  92.5-43.7L 92.5-43.7Q 97.7-43.7  101.1-41.05Q 104.5-38.4  104.5-33.8L 104.5-33.8Q 104.5-32.4  104.2-30.65Q 103.9-28.9  103.5-26.95Q 103.1-25  102.65-23.05Q 102.2-21.1  101.9-19.5L 101.9-19.5L 97.7 0L 77.4 0L 82.9-26.1Q 83.1-27.4  83.4-28.75Q 83.7-30.1  83.7-31.2L 83.7-31.2Q 83.7-32.7  82.95-33.65Q 82.2-34.6  80.7-34.6L 80.7-34.6Q 78.9-34.6  77.25-33.3Q 75.6-32  74.7-31L 74.7-31L 68.1 0L 47.7 0L 61.900000000000006-67.2L 82.4-67.2ZM 134.3-67.2L 122.4-39.3L 114.60000000000001-39.3L 119-67.2L 134.3-67.2ZM 171.3-30.4L 158.3-30.4Q 158.40000000000003-30.9  158.50000000000003-31.4Q 158.60000000000002-31.9  158.60000000000002-32.5L 158.60000000000002-32.5Q 158.60000000000002-34.3  157.95000000000002-35.85Q 157.3-37.4  155.40000000000003-37.4L 155.40000000000003-37.4Q 153.70000000000002-37.4  152.00000000000003-35.95Q 150.3-34.5  150.3-32.1L 150.3-32.1Q 150.3-30.5  151.15000000000003-29.55Q 152.00000000000003-28.6  153.40000000000003-28Q 154.8-27.4  156.55-27Q 158.3-26.6  160.00000000000003-26.2L 160.00000000000003-26.2Q 162.40000000000003-25.6  164.55-24.75Q 166.70000000000002-23.9  168.40000000000003-22.5Q 170.10000000000002-21.1  171.10000000000002-19.05Q 172.10000000000002-17  172.10000000000002-14L 172.10000000000002-14Q 172.10000000000002-9.8  170.15000000000003-6.95Q 168.20000000000002-4.1  164.75000000000003-2.35Q 161.3-0.6  156.65000000000003 0.1Q 152.00000000000003 0.8  146.70000000000002 0.8L 146.70000000000002 0.8Q 138.60000000000002 0.8  133.3-0.4Q 128.00000000000003-1.6 125.90000000000002-2.7L 125.90000000000002-2.7L 128.00000000000003-12.7L 141.50000000000003-12.7Q 141.40000000000003-12.2  141.40000000000003-11.75Q 141.40000000000003-11.3  141.40000000000003-10.8L 141.40000000000003-10.8Q 141.40000000000003-8.5  142.45000000000002-7.15Q 143.50000000000003-5.8  146.10000000000002-5.8L 146.10000000000002-5.8Q 149.00000000000003-5.8  150.25000000000003-7.45Q 151.50000000000003-9.1  151.50000000000003-10.5L 151.50000000000003-10.5Q 151.50000000000003-11.9  150.45000000000002-12.95Q 149.40000000000003-14  147.8-14.75Q 146.20000000000002-15.5  144.25000000000003-16.05Q 142.3-16.6  140.50000000000003-17.1L 140.50000000000003-17.1Q 139.20000000000002-17.4  137.55-18.1Q 135.90000000000003-18.8  134.40000000000003-20.1Q 132.90000000000003-21.4  131.90000000000003-23.45Q 130.90000000000003-25.5  130.90000000000003-28.6L 130.90000000000003-28.6Q 130.90000000000003-33  133.05-35.95Q 135.20000000000002-38.9  138.65000000000003-40.7Q 142.10000000000002-42.5  146.45000000000002-43.3Q 150.8-44.1  155.20000000000002-44.1L 155.20000000000002-44.1Q 160.70000000000002-44.1  165.60000000000002-43.1Q 170.50000000000003-42.1  173.60000000000002-40.5L 173.60000000000002-40.5L 171.3-30.4Z" />
  <path text="rbor Care" text-anchor="start" font-size="100" letter-spacing="0" side="left" offset="0" dx="0" dy="0" space="preserve" href="" font-family="Racing Sans One" font-scale="contain" transform="matrix(0.7324522137641907, 0, 0, 0.6488660573959351, 163.21226501464844, 281.11517333984375)" x="0" y="0" fill="#00e801" data-fl-textpath="" id="_wxi-OljaYIJidaYodxuUX" font-weight="400" font-style="normal" d="M-1 0L 8.1-43L 24.4-43L 25.9-35.5L 26.6-35.5Q 28.9-39.1  32.5-41.6Q 36.1-44.1  42-44.1L 42-44.1Q 42.4-44.1  43.25-44.05Q 44.1-44  45.15-43.75Q 46.2-43.5  47.35-43.05Q 48.5-42.6  49.6-41.8L 49.6-41.8L 45.2-21.2L 34.3-21.2Q 34.1-27.4  33.2-29.85Q 32.3-32.3  30.3-32.3L 30.3-32.3Q 29.3-32.3  28.15-31.85Q 27-31.4  25.8-29.9L 25.8-29.9L 19.4 0L-1 0ZM 68.00000000000001-6.5L 63.500000000000014 0L 47.30000000000001 0L 61.500000000000014-67.2L 82.00000000000001-67.2L 75.50000000000001-36.6L 76.20000000000002-36.6Q 79.50000000000001-40.4  83.65-42.05Q 87.80000000000001-43.7  91.9-43.7L 91.9-43.7Q 95.4-43.7  97.75000000000001-42.65Q 100.10000000000001-41.6  101.50000000000001-39.8Q 102.9-38  103.50000000000001-35.5Q 104.10000000000001-33  104.10000000000001-30.2L 104.10000000000001-30.2Q 104.10000000000001-28.8  103.9-26Q 103.70000000000002-23.2  103.00000000000001-19.75Q 102.30000000000001-16.3  101.00000000000001-12.65Q 99.70000000000002-9  97.55000000000001-6Q 95.4-3  92.15-1.1Q 88.9 0.8  84.4 0.8L 84.4 0.8Q 81.70000000000002 0.8  79.15 0.2Q 76.60000000000001-0.4  74.55000000000001-1.4Q 72.50000000000001-2.4  70.95000000000002-3.75Q 69.4-5.1  68.70000000000002-6.5L 68.70000000000002-6.5L 68.00000000000001-6.5ZM 74.80000000000001-8.9L 74.80000000000001-8.9Q 77.20000000000002-8.9  78.80000000000001-11.45Q 80.4-14  81.4-17.45Q 82.4-20.9  82.85000000000001-24.35Q 83.30000000000001-27.8  83.30000000000001-29.5L 83.30000000000001-29.5Q 83.30000000000001-31.5  82.65-32.8Q 82.00000000000001-34.1  80.30000000000001-34.1L 80.30000000000001-34.1Q 78.30000000000001-34.1  76.60000000000001-32.65Q 74.9-31.2  74.10000000000001-30.2L 74.10000000000001-30.2L 70.20000000000002-12.3Q 70.9-11.1  72.05000000000001-10Q 73.20000000000002-8.9  74.80000000000001-8.9ZM 138.3-44.1L 138.3-44.1Q 150.20000000000002-44.1  155.60000000000002-39.9L 155.60000000000002-39.9Q 161.3-35.5  161.3-25.3L 161.3-25.3Q 161.3-19  159.20000000000002-13.95Q 157.10000000000002-8.9  153.3-5.6L 153.3-5.6Q 145.70000000000002 0.8  131.3 0.8L 131.3 0.8Q 119.00000000000001 0.8  113.70000000000002-3.9L 113.70000000000002-3.9Q 108.00000000000001-8.8  108.00000000000001-18.6L 108.00000000000001-18.6Q 108.00000000000001-25.1  110.65-30.4Q 113.30000000000001-35.7  118.30000000000001-39.2L 118.30000000000001-39.2Q 125.60000000000001-44.1  138.3-44.1ZM 131.5-6L 131.5-6Q 134-6  135.85000000000002-8.8Q 137.70000000000002-11.6  138.8-15.65Q 139.9-19.7  140.45000000000002-24.05Q 141-28.4  141-31.6L 141-31.6Q 141-34.4  140.45000000000002-35.85Q 139.9-37.3  138.10000000000002-37.3L 138.10000000000002-37.3Q 135.4-37.3  133.45000000000002-34.4Q 131.5-31.5  130.3-27.5Q 129.10000000000002-23.5  128.55-19.3Q 128-15.1  128-12.5L 128-12.5Q 128-6  131.5-6ZM 163.3 0L 172.4-43L 188.70000000000002-43L 190.20000000000002-35.5L 190.9-35.5Q 193.20000000000002-39.1  196.8-41.6Q 200.4-44.1  206.3-44.1L 206.3-44.1Q 206.70000000000002-44.1  207.55-44.05Q 208.4-44  209.45000000000002-43.75Q 210.5-43.5  211.65-43.05Q 212.8-42.6  213.9-41.8L 213.9-41.8L 209.5-21.2L 198.60000000000002-21.2Q 198.4-27.4  197.5-29.85Q 196.60000000000002-32.3  194.60000000000002-32.3L 194.60000000000002-32.3Q 193.60000000000002-32.3  192.45000000000002-31.85Q 191.3-31.4  190.10000000000002-29.9L 190.10000000000002-29.9L 183.70000000000002 0L 163.3 0ZM 290.8-24.3L 286.8-5.4Q 284.3-4.2  281.65000000000003-3.05Q 279.00000000000006-1.9  276.00000000000006-1.05Q 273.00000000000006-0.2  269.45000000000005 0.3Q 265.90000000000003 0.8  261.70000000000005 0.8L 261.70000000000005 0.8Q 248.30000000000004 0.8  241.05000000000004-5.2Q 233.80000000000004-11.2  233.80000000000004-25.2L 233.80000000000004-25.2Q 233.80000000000004-33.3  236.30000000000004-40.45Q 238.80000000000004-47.6  243.70000000000005-52.95Q 248.60000000000002-58.3  255.80000000000004-61.4Q 263.00000000000006-64.5  272.3-64.5L 272.3-64.5Q 276.70000000000005-64.5  280.35-63.9Q 284.00000000000006-63.3  286.95000000000005-62.35Q 289.90000000000003-61.4  292.25000000000006-60.3Q 294.6-59.2  296.5-58.2L 296.5-58.2L 292.90000000000003-39.6L 274.90000000000003-39.6Q 275.00000000000006-40.6  275.15000000000003-42.2Q 275.3-43.8  275.40000000000003-45.45Q 275.50000000000006-47.1  275.6-48.7Q 275.70000000000005-50.3  275.70000000000005-51.4L 275.70000000000005-51.4Q 275.70000000000005-52.2  275.6-53.25Q 275.50000000000006-54.3  275.1-55.3Q 274.70000000000005-56.3  273.85-56.95Q 273.00000000000006-57.6  271.6-57.6L 271.6-57.6Q 269.00000000000006-57.6  266.85-55.45Q 264.70000000000005-53.3  263.00000000000006-49.75Q 261.3-46.2  260.00000000000006-41.7Q 258.70000000000005-37.2  257.85-32.55Q 257.00000000000006-27.9  256.55-23.4Q 256.1-18.9  256.1-15.5L 256.1-15.5Q 256.1-14.5  256.20000000000005-13Q 256.3-11.5  256.8-10.1Q 257.3-8.7  258.35-7.7Q 259.40000000000003-6.7  261.20000000000005-6.7L 261.20000000000005-6.7Q 264.3-6.7  267.20000000000005-10.55Q 270.1-14.4  272.3-24.3L 272.3-24.3L 290.8-24.3ZM 299.6-30.4L 301.5-39.3Q 306.6-41.8  311.95-42.95Q 317.3-44.1  323.90000000000003-44.1L 323.90000000000003-44.1Q 330.3-44.1  334.5-43.1Q 338.7-42.1  341.2-40.2Q 343.7-38.3  344.7-35.7Q 345.7-33.1  345.7-29.8L 345.7-29.8Q 345.7-27.9  345.45-25.7Q 345.2-23.5  344.90000000000003-22L 344.90000000000003-22L 340.2 0L 324.1 0L 322.3-6.4L 321.7-6.4Q 318.5-2.9  314.25-1.05Q 310 0.8  305.8 0.8L 305.8 0.8Q 303.40000000000003 0.8  301.1 0.1Q 298.8-0.6  297-2.05Q 295.2-3.5 294.1-5.75Q 293-8 293-11.2L 293-11.2Q 293-16.4  295.85-19.45Q 298.7-22.5  303.35-24.05Q 308-25.6  313.85-26Q 319.7-26.4  325.6-26.4L 325.6-26.4Q 325.8-27.4  326.1-29.25Q 326.40000000000003-31.1  326.40000000000003-32.5L 326.40000000000003-32.5Q 326.40000000000003-34.3  325.45-35.85Q 324.5-37.4  321.5-37.4L 321.5-37.4Q 318-37.4  316.35-35.35Q 314.7-33.3  314.2-30.4L 314.2-30.4L 299.6-30.4ZM 322.90000000000003-14L 324.5-21.7L 322.7-21.7Q 319.8-21.7  317.75-20.95Q 315.7-20.2  314.45-19Q 313.2-17.8  312.6-16.3Q 312-14.8  312-13.3L 312-13.3Q 312-10.9  313.25-9.7Q 314.5-8.5  316.2-8.5L 316.2-8.5Q 318.3-8.5  320.35-10Q 322.40000000000003-11.5  322.90000000000003-14L 322.90000000000003-14ZM 348.5 0L 357.6-43L 373.9-43L 375.4-35.5L 376.1-35.5Q 378.4-39.1  382-41.6Q 385.6-44.1  391.5-44.1L 391.5-44.1Q 391.9-44.1  392.75-44.05Q 393.6-44  394.65-43.75Q 395.7-43.5  396.85-43.05Q 398-42.6  399.1-41.8L 399.1-41.8L 394.7-21.2L 383.8-21.2Q 383.6-27.4  382.7-29.85Q 381.8-32.3  379.8-32.3L 379.8-32.3Q 378.8-32.3  377.65-31.85Q 376.5-31.4  375.3-29.9L 375.3-29.9L 368.9 0L 348.5 0ZM 447.7-20.1L 419.6-20.1Q 419.2-17.9  419.05-15.9Q 418.90000000000003-13.9  418.90000000000003-12.3L 418.90000000000003-12.3Q 418.90000000000003-11.4  419-10.3Q 419.1-9.2  419.45-8.25Q 419.8-7.3  420.45-6.65Q 421.1-6  422.3-6L 422.3-6Q 423.2-6  424.35-6.6Q 425.5-7.2  426.65000000000003-8.3Q 427.8-9.4  428.85-11Q 429.90000000000003-12.6  430.5-14.6L 430.5-14.6L 446.90000000000003-14.6L 444.3-3.9Q 442.3-2.6  439.7-1.7Q 437.1-0.8  434.2-0.25Q 431.3 0.3  428.3 0.55Q 425.3 0.8  422.6 0.8L 422.6 0.8Q 417.6 0.8  413.3-0.1Q 409-1  405.8-3.2Q 402.6-5.4  400.75-9.05Q 398.90000000000003-12.7  398.90000000000003-18.1L 398.90000000000003-18.1Q 398.90000000000003-23  400.45-27.7Q 402-32.4  405.65000000000003-36.05Q 409.3-39.7  415.45-41.9Q 421.6-44.1  430.8-44.1L 430.8-44.1Q 440.8-44.1  445.85-41Q 450.90000000000003-37.9  450.90000000000003-31.3L 450.90000000000003-31.3Q 450.90000000000003-28.6  450.1-25.45Q 449.3-22.3  447.7-20.1L 447.7-20.1ZM 432.90000000000003-32L 432.90000000000003-32Q 432.90000000000003-35.1  431.90000000000003-36.2Q 430.90000000000003-37.3  429.5-37.3L 429.5-37.3Q 427.90000000000003-37.3  426.55-36.25Q 425.2-35.2  424.1-33.45Q 423-31.7  422.1-29.45Q 421.2-27.2  420.6-24.7L 420.6-24.7L 432-24.7Q 432.2-25.9  432.40000000000003-27.2L 432.40000000000003-27.2Q 432.6-28.3  432.75-29.6Q 432.90000000000003-30.9  432.90000000000003-32Z" />
  <path d="M84.385,0.139c0,0,7.216,17.238-14.382,53.421c-17.426,29.192-18.639,58.697,3.698,78.898 c1.574,1.424,3.225,2.605,4.922,3.58c1.028,0.549,2.12,0.998,3.211,1.226c0,0-7.284,16.83-16.376,24.38 c-0.191,0.297-0.294,0.453-0.294,0.453s-7.554,30.633,9.402,2.949c0.595-0.971,1.168-1.947,1.731-2.924 c0.163-0.283,0.321-0.566,0.481-0.85c0.466-0.824,0.925-1.648,1.368-2.477c0.141-0.262,0.276-0.524,0.415-0.787 c0.398-0.754,0.789-1.51,1.169-2.266c0.16-0.316,0.316-0.633,0.473-0.949c0.369-0.75,0.73-1.5,1.083-2.25 c0.133-0.283,0.267-0.565,0.397-0.848c0.373-0.807,0.734-1.613,1.088-2.42c0.12-0.273,0.242-0.548,0.36-0.821 c0.356-0.825,0.701-1.651,1.038-2.476c0.117-0.285,0.235-0.572,0.35-0.858c0.327-0.813,0.645-1.626,0.954-2.437 c0.111-0.293,0.223-0.586,0.332-0.879c0.3-0.803,0.593-1.604,0.876-2.401c10.097-28.437,9.512-53.575,9.512-53.575 c0,0.004,0,0.008-0.001,0.013c0.145-3.411,0.118-6.859-0.118-10.318c0,0,8.102,30.597-4.262,63.721 C118.147,137.541,141.861,88.845,84.385,0.139z" transform="matrix(0.2217898666858673, 0.26387181878089905, -0.2559317648410797, 0.21511608362197876, 87.94471740722656, 209.41046142578125)" fill="#00e801" />
</svg>