<?xml version="1.0" encoding="utf-8"?>
<!-- Generator: Adobe Illustrator 25.2.1, SVG Export Plug-In . SVG Version: 6.00 Build 0)  -->
<svg version="1.1" id="_przbjyw-ut5ZCFqRFTRMP" xmlns="http://www.w3.org/2000/svg" xmlns:xlink="http://www.w3.org/1999/xlink"
	 x="0px" y="0px" viewBox="0 0 512 174" style="enable-background:new 0 0 512 174;" xml:space="preserve">
<style type="text/css">
	.st0{fill-rule:evenodd;clip-rule:evenodd;fill:#00E801;}
	.st1{fill:#00E801;}
</style>
<path id="_BqZHw96H8rdJxtI-rFXXy" class="st0" d="M105.2,113.3c-2.3,9.3-0.3,17.7,4.4,25.5c4.8,7.9,11.6,13.2,20.8,15.3
	c10.2,2.3,20.4,4.6,30.8,7c0-0.8,0.1-1.5,0-2.2c-1.1-6.7-2.8-13.4-3.3-20.1c-1-15.9-10.6-24.1-24.5-28.9c-2.5-0.9-5.1-1.5-7.8-1.8
	c-3.8-0.5-6.5-2.3-7.8-5.7c-3.8-9.7-7.6-19.5-10.9-29.4c-5.4-16.2-7.3-33.1-9.9-49.8c-1.2-7.8-4.6-10-12.2-7.8c-1,0.3-2,2.1-2.3,3.3
	c-2,8.1-3.6,16.2-5.6,24.3C71.5,65.4,65.7,87.8,56.3,109c-7.1,16.1-17,30.3-28.7,43.3c-0.8,0.9-1.5,1.8-2.3,2.7
	c-0.2,0.2-0.2,0.6-0.7,1.8c3-1.4,5.5-2.2,7.7-3.5c8.3-4.8,14.7-11.9,21.1-19c11.7-13,17.8-28.7,22.8-45c3.8-12.4,7.1-25,10.6-37.5
	c0.4-1.6,1.2-3.1,1.8-4.6c0.3,0,0.6,0,0.9,0c1.5,4.4,3.1,8.8,4.5,13.2c5.3,17.5,10.8,34.8,19,51.3c4.4,8.8,9.7,17.1,16.4,24.3
	c0.6,0.6,1.1,1.3,1.6,2c0.3,0.4,0.5,0.9,1.2,2.4c-2.4-0.8-4-1-5.3-1.8c-9.5-5.1-15.5-13.5-20.4-22.8
	C106,115,105.6,114.1,105.2,113.3z"/>
<path id="_GrLSZKToTQtkCosEid5tp" class="st1" d="M154.2,66.9H143c0.1-0.2,0.1-0.4,0.2-0.6c0.1-0.2,0.1-0.4,0.1-0.7l0,0
	c0-0.8-0.2-1.5-0.6-2.1c-0.4-0.7-1.1-1-2.2-1l0,0c-1,0-1.9,0.3-2.9,0.9c-1,0.6-1.5,1.4-1.5,2.5l0,0c0,0.7,0.2,1.2,0.7,1.6
	c0.5,0.4,1.1,0.7,1.9,1c0.8,0.3,1.7,0.5,2.7,0.6c1,0.2,2,0.3,3,0.5l0,0c1.4,0.3,2.7,0.6,3.9,0.9c1.2,0.4,2.3,0.8,3.3,1.4
	c1,0.6,1.7,1.3,2.3,2.2c0.6,0.9,0.9,2,0.9,3.2l0,0c0,1.8-0.6,3.3-1.7,4.5c-1.1,1.2-2.7,2.2-4.6,2.9s-4.3,1.3-7,1.6
	c-2.7,0.3-5.5,0.4-8.5,0.4l0,0c-4.6,0-8.5-0.3-11.5-0.8c-3-0.5-5.1-1-6.4-1.5l0,0l1.8-6.4h11.6c-0.1,0.2-0.1,0.4-0.1,0.6
	c0,0.2,0,0.4,0,0.6l0,0c0,1,0.3,1.8,0.9,2.3s1.6,0.9,3.1,0.9l0,0c1.7,0,2.8-0.4,3.6-1.1c0.7-0.7,1.1-1.4,1.1-2l0,0
	c0-0.6-0.3-1.1-0.9-1.6c-0.6-0.4-1.4-0.8-2.3-1.2c-0.9-0.3-1.9-0.6-3-0.8c-1.1-0.2-2.2-0.5-3.2-0.7l0,0c-0.7-0.1-1.6-0.3-2.5-0.6
	s-1.8-0.7-2.7-1.3c-0.9-0.6-1.6-1.3-2.1-2.1c-0.6-0.9-0.9-2-0.9-3.3l0,0c0-1.9,0.6-3.4,1.8-4.7c1.2-1.3,2.8-2.3,4.8-3
	c2-0.8,4.2-1.3,6.7-1.7c2.5-0.3,5-0.5,7.5-0.5l0,0c3.1,0,6.1,0.2,8.9,0.6c2.8,0.4,5.1,1,6.9,1.7l0,0L154.2,66.9z M187.4,43.4
	L181.8,63h0.6c1.1-0.8,2.3-1.6,3.8-2.2l0,0c1.2-0.6,2.6-1.1,4.3-1.6c1.7-0.5,3.5-0.7,5.6-0.7l0,0c3,0,5.4,0.6,7.4,1.7
	c1.9,1.1,2.9,2.7,2.9,4.6l0,0c0,0.6-0.1,1.3-0.3,2s-0.4,1.5-0.6,2.4s-0.5,1.7-0.7,2.5c-0.3,0.8-0.5,1.6-0.6,2.3l0,0l-3.6,12.5h-17.4
	l4.7-16.7c0.1-0.6,0.3-1.1,0.4-1.7s0.3-1.1,0.3-1.6l0,0c0-0.6-0.2-1.2-0.6-1.6c-0.4-0.4-1.1-0.6-1.9-0.6l0,0c-1,0-2,0.3-3,0.8
	c-0.9,0.6-1.7,1-2.2,1.5l0,0l-5.7,19.8h-17.5l12.2-43H187.4z M232,43.4l-10.2,17.8h-6.7l3.8-17.8H232z M263.7,66.9h-11.2
	c0.1-0.2,0.1-0.4,0.2-0.6c0.1-0.2,0.1-0.4,0.1-0.7l0,0c0-0.8-0.2-1.5-0.6-2.1c-0.4-0.7-1.1-1-2.2-1l0,0c-1,0-1.9,0.3-2.9,0.9
	s-1.5,1.4-1.5,2.5l0,0c0,0.7,0.2,1.2,0.7,1.6c0.5,0.4,1.1,0.7,1.9,1c0.8,0.3,1.7,0.5,2.7,0.6c1,0.2,2,0.3,3,0.5l0,0
	c1.4,0.3,2.7,0.6,3.9,0.9c1.2,0.4,2.3,0.8,3.3,1.4s1.7,1.3,2.3,2.2c0.6,0.9,0.9,2,0.9,3.2l0,0c0,1.8-0.6,3.3-1.7,4.5
	c-1.1,1.2-2.7,2.2-4.6,2.9s-4.3,1.3-7,1.6c-2.7,0.3-5.5,0.4-8.5,0.4l0,0c-4.6,0-8.5-0.3-11.5-0.8c-3-0.5-5.1-1-6.4-1.5l0,0l1.8-6.4
	h11.6c-0.1,0.2-0.1,0.4-0.1,0.6c0,0.2,0,0.4,0,0.6l0,0c0,1,0.3,1.8,0.9,2.3s1.6,0.9,3.1,0.9l0,0c1.7,0,2.8-0.4,3.6-1.1
	c0.7-0.7,1.1-1.4,1.1-2l0,0c0-0.6-0.3-1.1-0.9-1.6s-1.4-0.8-2.3-1.2c-0.9-0.3-1.9-0.6-3-0.8c-1.1-0.2-2.2-0.5-3.2-0.7l0,0
	c-0.7-0.1-1.6-0.3-2.5-0.6c-0.9-0.3-1.8-0.7-2.7-1.3c-0.9-0.6-1.6-1.3-2.1-2.1c-0.6-0.9-0.9-2-0.9-3.3l0,0c0-1.9,0.6-3.4,1.8-4.7
	c1.2-1.3,2.8-2.3,4.8-3c2-0.8,4.2-1.3,6.7-1.7s5-0.5,7.5-0.5l0,0c3.1,0,6.1,0.2,8.9,0.6c2.8,0.4,5.1,1,6.9,1.7l0,0L263.7,66.9z"/>
<path id="_wxi-OljaYIJidaYodxuUX" class="st1" d="M162.5,131.1l6.7-27.9h11.9l1.1,4.9h0.5c1.1-1.6,2.6-2.9,4.3-4
	c1.8-1.1,4.1-1.6,7-1.6l0,0c0.2,0,0.5,0,0.9,0s0.9,0.1,1.4,0.2c0.5,0.1,1,0.3,1.6,0.5c0.6,0.2,1.1,0.5,1.6,0.8l0,0l-3.2,13.4h-8
	c-0.1-2.7-0.4-4.6-0.8-5.6s-1.1-1.6-2.1-1.6l0,0c-0.5,0-1,0.1-1.6,0.3c-0.6,0.2-1.1,0.6-1.7,1.3l0,0l-4.7,19.4H162.5z M213,126.9
	l-3.3,4.2h-11.9l10.4-43.6h15l-4.8,19.9h0.5c1.6-1.6,3.4-2.8,5.5-3.5c2-0.7,4-1.1,6-1.1l0,0c1.7,0,3.1,0.2,4.3,0.7
	c1.1,0.5,2.1,1.1,2.7,1.8c0.7,0.8,1.2,1.7,1.5,2.8s0.4,2.2,0.4,3.4l0,0c0,0.6,0,1.5-0.1,2.7c-0.1,1.2-0.3,2.6-0.7,4.1
	c-0.3,1.5-0.8,3-1.5,4.6c-0.6,1.6-1.5,3-2.5,4.3c-1,1.3-2.4,2.4-4,3.2c-1.6,0.8-3.5,1.2-5.7,1.2l0,0c-1.3,0-2.6-0.1-3.8-0.4
	c-1.2-0.3-2.4-0.6-3.4-1c-1-0.4-1.9-0.9-2.6-1.5c-0.8-0.6-1.3-1.2-1.6-1.8l0,0H213z M218,125.3L218,125.3c1.2,0,2.1-0.6,2.9-1.7
	c0.8-1.1,1.4-2.4,1.9-3.9c0.5-1.5,0.8-3,1.1-4.5c0.2-1.5,0.3-2.6,0.3-3.3l0,0c0-0.9-0.2-1.6-0.5-2.1c-0.3-0.6-0.9-0.8-1.7-0.8l0,0
	c-1,0-1.9,0.3-2.7,0.9c-0.8,0.6-1.4,1.2-1.8,1.6l0,0l-2.9,11.6c0.3,0.5,0.8,1,1.4,1.5C216.5,125.1,217.2,125.3,218,125.3z
	 M264.5,102.5L264.5,102.5c5.8,0,10,0.9,12.7,2.7l0,0c2.8,1.9,4.2,5.1,4.2,9.5l0,0c0,2.7-0.5,5.2-1.5,7.4c-1,2.2-2.5,4-4.3,5.4l0,0
	c-3.7,2.8-9.1,4.2-16.1,4.2l0,0c-6,0-10.3-1-12.9-3l0,0c-2.8-2.1-4.2-5.3-4.2-9.5l0,0c0-2.8,0.6-5.4,1.9-7.7
	c1.3-2.3,3.2-4.2,5.6-5.7l0,0C253.4,103.6,258.3,102.5,264.5,102.5z M259.5,127.2L259.5,127.2c1.2,0,2.3-0.6,3.2-1.8
	c0.9-1.2,1.6-2.7,2.2-4.4c0.5-1.8,0.9-3.6,1.2-5.5c0.3-1.9,0.4-3.5,0.4-4.9l0,0c0-1.2-0.1-2.1-0.4-2.8s-0.8-0.9-1.7-0.9l0,0
	c-1.3,0-2.5,0.6-3.4,1.9s-1.7,2.7-2.3,4.5s-1,3.5-1.3,5.3c-0.3,1.8-0.4,3.3-0.4,4.4l0,0C257,125.8,257.8,127.2,259.5,127.2z
	 M282.8,131.1l6.7-27.9h11.9l1.1,4.9h0.5c1.1-1.6,2.6-2.9,4.3-4s4.1-1.6,7-1.6l0,0c0.2,0,0.5,0,0.9,0c0.4,0,0.9,0.1,1.4,0.2
	c0.5,0.1,1,0.3,1.6,0.5c0.6,0.2,1.1,0.5,1.6,0.8l0,0l-3.2,13.4h-8c-0.1-2.7-0.4-4.6-0.8-5.6c-0.4-1.1-1.1-1.6-2.1-1.6l0,0
	c-0.5,0-1,0.1-1.6,0.3c-0.6,0.2-1.1,0.6-1.7,1.3l0,0l-4.7,19.4H282.8z M376.2,115.3l-2.9,12.3c-1.2,0.5-2.5,1-3.8,1.5
	c-1.3,0.5-2.7,0.9-4.1,1.3s-3.1,0.7-4.8,0.9c-1.7,0.2-3.6,0.3-5.7,0.3l0,0c-6.5,0-11.6-1.3-15.1-3.9c-3.5-2.6-5.3-6.9-5.3-13l0,0
	c0-3.5,0.6-6.8,1.8-9.9c1.2-3.1,3-5.8,5.4-8.1c2.4-2.3,5.3-4.1,8.9-5.5c3.5-1.3,7.5-2,12.1-2l0,0c2.1,0,4.1,0.1,5.9,0.4
	s3.4,0.6,4.8,1c1.4,0.4,2.7,0.9,3.9,1.3s2.2,0.9,3.1,1.4l0,0l-2.6,12.1h-13.2c0-0.4,0.1-1,0.2-1.7s0.1-1.4,0.2-2.1
	c0-0.7,0.1-1.4,0.1-2.1c0-0.7,0.1-1.3,0.1-1.8l0,0c0-0.3,0-0.7-0.1-1.2c0-0.5-0.2-0.9-0.4-1.3c-0.2-0.4-0.5-0.8-0.9-1.1
	c-0.4-0.3-1-0.4-1.6-0.4l0,0c-1.3,0-2.4,0.5-3.5,1.4c-1,0.9-2,2.2-2.8,3.7c-0.8,1.5-1.6,3.3-2.2,5.2c-0.6,1.9-1.2,3.9-1.6,5.9
	c-0.4,2-0.7,4-1,5.9c-0.2,1.9-0.3,3.7-0.3,5.1l0,0c0,0.4,0,1,0.1,1.6s0.2,1.3,0.4,1.9c0.2,0.6,0.6,1.1,1.1,1.6s1.2,0.6,2.1,0.6l0,0
	c1.5,0,3-0.8,4.4-2.5s2.7-4.6,3.7-8.9l0,0H376.2z M382.7,111.4l1.4-5.8c2.5-1.1,5-1.9,7.7-2.4c2.6-0.5,5.5-0.7,8.8-0.7l0,0
	c3.1,0,5.7,0.2,7.8,0.6s3.7,1.1,4.9,1.9c1.2,0.8,2.1,1.8,2.6,2.9c0.5,1.1,0.7,2.4,0.7,3.8l0,0c0,0.8-0.1,1.7-0.2,2.7
	c-0.1,1-0.3,1.8-0.4,2.4l0,0l-3.4,14.3h-11.8l-1.3-4.2h-0.4c-1.6,1.5-3.4,2.7-5.5,3.5c-2.1,0.8-4.1,1.2-6.2,1.2l0,0
	c-1.2,0-2.3-0.2-3.4-0.5c-1.1-0.3-2.1-0.8-3-1.4c-0.9-0.6-1.6-1.4-2.1-2.4c-0.5-1-0.8-2.2-0.8-3.5l0,0c0-2.2,0.7-4,2.1-5.4
	c1.4-1.3,3.2-2.3,5.5-3c2.3-0.7,4.8-1.1,7.7-1.3c2.9-0.2,5.7-0.3,8.6-0.3l0,0c0.1-0.4,0.2-1,0.4-1.8c0.1-0.8,0.2-1.5,0.2-2.1l0,0
	c0-0.8-0.2-1.5-0.7-2.2c-0.5-0.7-1.4-1-2.9-1l0,0c-1.7,0-3,0.4-3.8,1.3c-0.8,0.9-1.3,2-1.6,3.2l0,0H382.7z M399.7,122l1.2-5h-1.3
	c-1.4,0-2.6,0.2-3.6,0.5c-1,0.3-1.8,0.7-2.4,1.3c-0.6,0.5-1.1,1.1-1.4,1.8s-0.4,1.3-0.4,1.9l0,0c0,1,0.3,1.8,0.9,2.3
	c0.6,0.5,1.3,0.8,2.2,0.8l0,0c1,0,2-0.3,3-1S399.5,123.1,399.7,122L399.7,122z M418.5,131.1l6.7-27.9h11.9l1.1,4.9h0.5
	c1.1-1.6,2.6-2.9,4.3-4c1.8-1.1,4.1-1.6,7-1.6l0,0c0.2,0,0.5,0,0.9,0s0.9,0.1,1.4,0.2c0.5,0.1,1,0.3,1.6,0.5
	c0.6,0.2,1.1,0.5,1.6,0.8l0,0l-3.2,13.4h-8c-0.1-2.7-0.4-4.6-0.8-5.6c-0.4-1.1-1.1-1.6-2.1-1.6l0,0c-0.5,0-1,0.1-1.6,0.3
	c-0.6,0.2-1.1,0.6-1.7,1.3l0,0l-4.7,19.4H418.5z M491.1,118.1h-20.6c-0.2,1-0.3,1.9-0.4,2.7c-0.1,0.9-0.1,1.6-0.1,2.3l0,0
	c0,0.4,0,0.8,0.1,1.3c0,0.5,0.2,0.9,0.3,1.3c0.2,0.4,0.4,0.8,0.7,1c0.3,0.3,0.8,0.4,1.4,0.4l0,0c0.4,0,0.9-0.1,1.5-0.4
	c0.6-0.3,1.1-0.6,1.7-1.1c0.6-0.5,1.1-1.1,1.6-1.8s0.9-1.5,1.2-2.3l0,0h12l-1.9,6.9c-1,0.6-2.1,1-3.4,1.4c-1.3,0.4-2.6,0.7-4,0.9
	c-1.4,0.2-2.9,0.4-4.3,0.5c-1.5,0.1-2.9,0.2-4.2,0.2l0,0c-2.4,0-4.7-0.2-6.8-0.6c-2.1-0.4-3.9-1.1-5.5-2s-2.8-2.2-3.7-3.8
	c-0.9-1.6-1.4-3.5-1.4-5.9l0,0c0-2.1,0.4-4.2,1.1-6.2c0.8-2,2-3.8,3.8-5.4c1.8-1.6,4.2-2.8,7.2-3.8c3-1,6.8-1.4,11.2-1.4l0,0
	c4.9,0,8.6,0.7,11,2c2.5,1.3,3.7,3.4,3.7,6.3l0,0c0,1.2-0.2,2.4-0.6,3.8C492.5,116,491.9,117.1,491.1,118.1L491.1,118.1z
	 M480.3,110.4L480.3,110.4c0-1.3-0.2-2.2-0.7-2.7c-0.5-0.5-1.1-0.7-1.8-0.7l0,0c-0.8,0-1.5,0.2-2.2,0.7c-0.7,0.5-1.3,1.1-1.8,1.8
	c-0.5,0.8-1,1.6-1.5,2.6s-0.8,2-1.1,3.1l0,0h8.3c0.1-0.5,0.2-1.1,0.3-1.6l0,0c0.1-0.5,0.2-1,0.3-1.6
	C480.3,111.3,480.3,110.8,480.3,110.4z"/>
<path class="st1" d="M106.6,81.7c0,0-2.8,5.6-16.9,7.7c-11.3,1.7-19.2,7.7-19.4,17.9c0,0.7,0,1.4,0.2,2.1c0.1,0.4,0.2,0.8,0.4,1.1
	c0,0-5.9,1.7-9.9,0.9c-0.1,0-0.2,0-0.2,0s-9.5,4.6,1.3,3.1c0.4-0.1,0.8-0.1,1.1-0.2c0.1,0,0.2,0,0.3-0.1c0.3-0.1,0.6-0.1,0.9-0.2
	c0.1,0,0.2,0,0.3-0.1c0.3-0.1,0.6-0.1,0.8-0.2c0.1,0,0.2-0.1,0.3-0.1c0.3-0.1,0.5-0.1,0.8-0.2c0.1,0,0.2-0.1,0.3-0.1
	c0.3-0.1,0.6-0.2,0.9-0.2c0.1,0,0.2-0.1,0.3-0.1c0.3-0.1,0.6-0.2,0.9-0.3c0.1,0,0.2-0.1,0.3-0.1c0.3-0.1,0.6-0.2,0.8-0.3
	c0.1,0,0.2-0.1,0.3-0.1c0.3-0.1,0.5-0.2,0.8-0.3c9.5-3.5,15.8-9,15.8-9c0,0,0,0,0,0c0.9-0.7,1.8-1.4,2.6-2.3c0,0-6,8.7-17.3,12.6
	C78.9,120.2,96.7,116,106.6,81.7z"/>
</svg>
